<svg width="208" height="208" viewBox="0 0 208 208" fill="none" xmlns="http://www.w3.org/2000/svg">
<rect width="208" height="208" fill="#2A50A1"/>
<path d="M178.403 65.9941C178.153 65.9974 177.905 66.0359 177.666 66.1086V46.3785C177.667 45.4427 177.562 44.5097 177.354 43.5973C177.367 43.4012 177.367 43.2045 177.354 43.0084C177.403 32.4726 144.538 23.9 103.984 23.9C63.4311 23.9 30.5655 32.4726 30.5655 43.0247C30.553 43.2209 30.553 43.4176 30.5655 43.6137C30.3474 44.5195 30.2319 45.447 30.2213 46.3785V66.1086C29.982 66.0359 29.7337 65.9974 29.4837 65.9941C25.4021 65.9941 22.0254 75.99 22.0254 88.309C22.0254 100.628 25.4021 110.64 29.5656 110.64C29.7881 110.63 30.0084 110.591 30.2213 110.526V155.188C30.2299 158.544 31.5694 161.76 33.9469 164.133C36.3243 166.505 39.5463 167.842 42.9085 167.851H45.0723C45.0723 167.949 45.0723 168.047 45.0723 168.145V175.606C45.0766 177.8 45.9518 179.903 47.5064 181.454C49.0609 183.006 51.1681 183.879 53.3665 183.884H61.3657C63.5471 183.854 65.6291 182.969 67.1624 181.42C68.6958 179.871 69.5575 177.783 69.5616 175.606V168.145C69.5616 168.047 69.5616 167.949 69.5616 167.851H138.407C138.407 167.949 138.407 168.047 138.407 168.145V175.606C138.407 177.786 139.267 179.878 140.801 181.43C142.334 182.983 144.419 183.87 146.603 183.9H154.488C156.686 183.896 158.793 183.022 160.348 181.471C161.902 179.919 162.777 177.816 162.782 175.622V168.145C162.782 168.047 162.782 167.949 162.782 167.851H164.946C166.62 167.862 168.28 167.542 169.831 166.911C171.381 166.28 172.792 165.35 173.981 164.173C175.171 162.997 176.116 161.597 176.762 160.056C177.408 158.514 177.743 156.86 177.748 155.188V110.526C177.987 110.598 178.235 110.637 178.485 110.64C182.649 110.64 186.025 100.644 186.025 88.3254C186.025 76.0063 182.567 65.9941 178.403 65.9941ZM75.938 33.7159H132.031C133.265 33.7159 134.45 34.2055 135.323 35.0768C136.196 35.9481 136.686 37.1299 136.686 38.3622C136.686 39.5944 136.196 40.7762 135.323 41.6475C134.45 42.5189 133.265 43.0084 132.031 43.0084H75.938C74.7034 43.0084 73.5193 42.5189 72.6463 41.6475C71.7732 40.7762 71.2828 39.5944 71.2828 38.3622C71.2828 37.1299 71.7732 35.9481 72.6463 35.0768C73.5193 34.2055 74.7034 33.7159 75.938 33.7159ZM57.2842 154.976C55.5043 154.976 53.7644 154.449 52.2845 153.462C50.8046 152.475 49.6512 151.072 48.9701 149.431C48.289 147.79 48.1107 145.984 48.458 144.242C48.8052 142.5 49.6623 140.899 50.9208 139.643C52.1794 138.387 53.7829 137.532 55.5285 137.185C57.2742 136.838 59.0836 137.016 60.728 137.696C62.3723 138.376 63.7778 139.527 64.7666 141.004C65.7555 142.481 66.2833 144.218 66.2833 145.994C66.2833 148.376 65.3351 150.661 63.6475 152.345C61.9598 154.029 59.6709 154.976 57.2842 154.976ZM150.717 154.976C148.938 154.976 147.198 154.449 145.718 153.462C144.238 152.475 143.084 151.072 142.403 149.431C141.722 147.79 141.544 145.984 141.891 144.242C142.238 142.5 143.096 140.899 144.354 139.643C145.613 138.387 147.216 137.532 148.962 137.185C150.707 136.838 152.517 137.016 154.161 137.696C155.806 138.376 157.211 139.527 158.2 141.004C159.189 142.481 159.717 144.218 159.717 145.994C159.717 147.176 159.483 148.347 159.028 149.439C158.574 150.531 157.908 151.522 157.069 152.357C156.23 153.191 155.234 153.852 154.139 154.301C153.043 154.751 151.869 154.98 150.685 154.976H150.717ZM164.257 116.268C164.248 118.795 163.239 121.216 161.449 123.003C159.658 124.79 157.233 125.797 154.701 125.806H53.2846C50.7527 125.797 48.327 124.79 46.5367 123.003C44.7464 121.216 43.7368 118.795 43.7281 116.268V60.3662C43.7368 57.8393 44.7464 55.4183 46.5367 53.6315C48.327 51.8447 50.7527 50.837 53.2846 50.8284H154.684C157.216 50.837 159.642 51.8447 161.432 53.6315C163.222 55.4183 164.232 57.8393 164.241 60.3662V116.268H164.257Z" fill="white"/>
</svg>
